<svg width="24" height="24" viewBox="0 0 24 24" fill="none" xmlns="http://www.w3.org/2000/svg">
<path d="M5.14614 3.07362C4.83283 3.19317 4.60198 3.41166 4.44945 3.72496L4.31341 4.00116L4.30104 11.7472C4.29692 16.8507 4.30517 19.5756 4.33402 19.724C4.42472 20.2269 4.70916 20.5938 5.19148 20.8288C5.48005 20.9731 5.53364 20.9855 5.85931 20.9855C6.16849 20.9855 6.2427 20.969 6.45706 20.8618C6.5931 20.7917 7.80096 19.9178 9.13662 18.9201C10.5671 17.8524 11.6348 17.0815 11.7296 17.0486C11.8945 16.995 12.1542 17.0073 12.3315 17.0815C12.3892 17.1022 13.5476 17.9555 14.9121 18.9737C16.2725 19.992 17.468 20.8577 17.5669 20.8989C18.21 21.1545 19.0098 20.9113 19.4096 20.33C19.69 19.9219 19.6694 20.532 19.6611 11.8131L19.6487 3.91872L19.5374 3.7126C19.4055 3.46525 19.1788 3.24264 18.9273 3.11073L18.7418 3.01179L12.0429 3.00354C5.57074 2.9953 5.33577 2.9953 5.14614 3.07362Z" fill="white"/>
</svg>
