<svg width="24" height="24" viewBox="0 0 24 24" fill="none" xmlns="http://www.w3.org/2000/svg">
<path d="M2.68691 1.64223C2.26375 1.7235 1.89756 2.01199 1.71446 2.40208C1.62495 2.59305 1.6046 2.69058 1.6046 2.95876C1.6046 3.58858 1.32792 3.2757 5.97858 7.91606L10.0881 12.0201L5.94196 16.1647C2.57705 19.5332 1.78363 20.3459 1.70632 20.5125C1.56798 20.801 1.56392 21.3211 1.69819 21.6096C1.81618 21.8656 2.07659 22.1338 2.33699 22.2719C2.62995 22.4223 3.09786 22.4426 3.43557 22.3207C3.67156 22.2313 3.81804 22.0931 7.8421 18.0785L12.0004 13.9298L16.1425 18.0582C19.4667 21.3739 20.3212 22.2069 20.4839 22.2841C20.6548 22.3654 20.7484 22.3816 21.0739 22.3816C21.4116 22.3816 21.4849 22.3654 21.6639 22.2719C21.9161 22.1419 22.1888 21.8534 22.3068 21.5974C22.437 21.3211 22.4288 20.7969 22.2945 20.5125C22.2172 20.3459 21.4238 19.5332 18.0589 16.1647L13.9128 12.0201L18.0223 7.91606C22.6729 3.2757 22.3963 3.58858 22.3963 2.95876C22.3963 2.69464 22.3759 2.59305 22.2905 2.4102C21.9609 1.71131 21.1349 1.42687 20.4432 1.76819C20.3374 1.82102 18.8523 3.27164 16.1425 5.97784L12.0004 10.1103L7.86245 5.97784C5.14854 3.27164 3.66343 1.82102 3.55764 1.76819C3.4193 1.69912 2.96766 1.58534 2.89035 1.60159C2.87814 1.60566 2.78456 1.62191 2.68691 1.64223Z" fill="white"/>
</svg>
