<svg width="24" height="24" viewBox="0 0 24 24" fill="none" xmlns="http://www.w3.org/2000/svg">
<path d="M20.3757 1.52693C20.6051 1.63754 22.2561 3.30083 22.3381 3.50157C22.42 3.69412 22.42 4.03825 22.3421 4.20621C22.3094 4.27586 21.7604 4.8535 21.1213 5.4926L19.966 6.64789L18.6018 5.28366L17.2417 3.92354L18.4174 2.74776C19.1958 1.96938 19.6506 1.55151 19.7489 1.50644C19.9578 1.42041 20.1791 1.4286 20.3757 1.52693Z" fill="white"/>
<path d="M17.6104 5.07882C18.0037 5.4803 18.6018 6.09072 18.9419 6.43076L19.5564 7.05756L18.5117 8.11043C17.9382 8.69217 14.8246 11.818 11.5923 15.0586L5.71751 20.9497L4.36967 19.606C3.63225 18.8685 3.02593 18.2458 3.02593 18.2295C3.02593 18.1844 16.7911 4.37827 16.8484 4.36189C16.873 4.35779 17.2171 4.68143 17.6104 5.07882Z" fill="white"/>
<path d="M3.98454 19.9993L5.20947 21.2242L3.41099 21.8182C2.42367 22.1419 1.60841 22.4041 1.60022 22.4C1.58383 22.3836 2.70225 18.8399 2.73502 18.8071C2.75141 18.7907 3.31267 19.3274 3.98454 19.9993Z" fill="white"/>
</svg>
