<svg width="24" height="24" viewBox="0 0 24 24" fill="none" xmlns="http://www.w3.org/2000/svg">
<path d="M12.5494 1.76967C12.2872 1.59196 11.947 1.55158 11.649 1.65916C11.5032 1.71191 11.442 1.75202 11.3025 1.89141C10.9752 2.21877 10.994 1.91234 10.9994 6.74156L11.0023 11.0108L6.69292 11.0099C3.19305 11.0119 2.35825 11.0219 2.23147 11.0682C2.00961 11.1463 1.73716 11.4145 1.657 11.6342C1.58527 11.8287 1.58123 12.1034 1.64477 12.3106C1.71889 12.541 1.95154 12.7948 2.19044 12.9069C2.35957 12.9831 2.50751 12.9874 6.6858 12.9924L11.0036 12.9974L11.0107 17.2961C11.0151 20.7474 11.0263 21.6244 11.0707 21.7492C11.1173 21.8802 11.1575 21.9374 11.3267 22.1065C11.5023 22.282 11.5487 22.3117 11.6904 22.3561C11.889 22.4197 12.1807 22.4114 12.3751 22.3397C12.5864 22.2637 12.8546 21.9871 12.9327 21.7695C12.9791 21.6427 12.9891 20.8079 12.991 17.308L12.9902 12.9987L17.2594 13.0015C22.0886 13.0069 21.7821 13.0257 22.1095 12.6983C22.2468 12.5611 22.289 12.4977 22.3396 12.3583C22.5316 11.8237 22.2502 11.2465 21.7132 11.0644C21.6308 11.0369 20.1049 11.0189 17.2898 11.0171L12.9889 11.0121L12.986 6.71331C12.9819 3.89608 12.9641 2.37016 12.9365 2.28772C12.9005 2.17991 12.7249 1.88602 12.6763 1.85429C12.6679 1.85005 12.6107 1.80986 12.5494 1.76967Z" fill="white"/>
</svg>
